<svg width="16" height="10" viewBox="0 0 16 10" fill="none" xmlns="http://www.w3.org/2000/svg">
<path d="M15.7071 8.29289C16.0976 8.68342 16.0976 9.31658 15.7071 9.70711C15.3166 10.0976 14.6834 10.0976 14.2929 9.70711L15.7071 8.29289ZM8 2L7.29289 1.29289L8 0.585786L8.70711 1.29289L8 2ZM1.70711 9.70711C1.31658 10.0976 0.683418 10.0976 0.292893 9.70711C-0.0976311 9.31658 -0.0976311 8.68342 0.292893 8.29289L1.70711 9.70711ZM14.2929 9.70711L7.29289 2.70711L8.70711 1.29289L15.7071 8.29289L14.2929 9.70711ZM8.70711 2.70711L1.70711 9.70711L0.292893 8.29289L7.29289 1.29289L8.70711 2.70711Z" fill="#3E2E4D"/>
</svg>
